<svg width="74" height="50" viewBox="0 0 74 50" fill="none" xmlns="http://www.w3.org/2000/svg">
<path d="M37.2382 0H37.6499C41.4518 0.0133464 60.7162 0.146811 65.9104 1.49035C67.4806 1.90039 68.9115 2.69963 70.06 3.8082C71.2085 4.91678 72.0344 6.29586 72.4552 7.80763C72.9223 9.49818 73.2507 11.7359 73.4727 14.0448L73.519 14.5075L73.6207 15.6642L73.6577 16.1269C73.9584 20.1931 73.9954 24.0012 74 24.8332V25.1668C73.9954 26.0299 73.9538 30.0961 73.6207 34.3313L73.5837 34.7985L73.5421 35.2611C73.3108 37.8059 72.9686 40.3328 72.4552 42.1924C72.0344 43.7041 71.2085 45.0832 70.06 46.1918C68.9115 47.3004 67.4806 48.0996 65.9104 48.5097C60.545 49.8977 40.1521 49.9956 37.3261 50H36.6693C35.2401 50 29.329 49.9733 23.1311 49.7687L22.3448 49.742L21.9424 49.7242L21.1514 49.693L20.3605 49.6619C15.2265 49.4439 10.3375 49.0924 8.08501 48.5052C6.51531 48.0956 5.08481 47.297 3.93636 46.1892C2.78791 45.0815 1.96169 43.7033 1.54022 42.1924C1.02681 40.3372 0.684543 37.8059 0.453278 35.2611L0.416276 34.794L0.379274 34.3313C0.14969 31.3169 0.0231973 28.296 0 25.2736L0 24.7264C0.00925058 23.7699 0.0462529 20.4645 0.296019 16.8164L0.328396 16.3582L0.342271 16.1269L0.379274 15.6642L0.48103 14.5075L0.527283 14.0448C0.749297 11.7359 1.07769 9.49373 1.54485 7.80763C1.96561 6.29586 2.79151 4.91678 3.94001 3.8082C5.08851 2.69963 6.51938 1.90039 8.08963 1.49035C10.3421 0.912003 15.2311 0.556099 20.3651 0.333659L21.1514 0.302518L21.947 0.275826L22.3448 0.262479L23.1357 0.231338C27.5376 0.0952203 31.9414 0.0195825 36.3455 0.004449L37.2382 0ZM29.6019 14.2806V35.7149L48.8292 25.0022L29.6019 14.2806Z" fill="white"/>
</svg>
